<?xml version="1.0" standalone="no"?>
<!DOCTYPE svg PUBLIC "-//W3C//DTD SVG 20010904//EN"
 "http://www.w3.org/TR/2001/REC-SVG-20010904/DTD/svg10.dtd">
<svg version="1.0" xmlns="http://www.w3.org/2000/svg"
 width="640.000000pt" height="640.000000pt" viewBox="0 0 640.000000 640.000000"
 preserveAspectRatio="xMidYMid meet">
<metadata>
Created by potrace 1.16, written by Peter Selinger 2001-2019
</metadata>
<g transform="translate(0.000000,640.000000) scale(0.100000,-0.100000)"
fill="#000000" stroke="none">
<path d="M903 4705 c-32 -16 -61 -41 -79 -67 l-29 -41 -3 -911 c-3 -998 -5
-961 56 -1019 46 -44 97 -59 220 -65 l112 -5 0 -244 c0 -261 3 -281 54 -348
13 -17 48 -44 77 -60 l54 -30 215 -3 215 -4 23 -53 c28 -62 110 -148 172 -180
197 -99 438 -19 534 178 l28 57 934 0 c909 0 934 -1 934 -19 0 -28 73 -132
120 -169 146 -118 367 -119 494 -3 25 23 27 24 17 4 -36 -71 8 -146 94 -158
65 -10 197 0 223 16 31 19 55 74 47 108 -3 16 -17 39 -31 52 -24 23 -32 24
-160 24 -74 0 -134 1 -134 2 0 1 11 18 25 39 13 20 30 51 36 69 l12 33 136 4
c150 4 182 14 241 71 71 69 70 53 70 648 l1 534 -249 540 c-262 567 -275 589
-357 630 -38 19 -65 20 -442 23 l-403 3 0 102 c0 77 -5 112 -19 142 -23 51
-79 101 -128 114 -26 8 -525 11 -1549 11 l-1510 0 -51 -25z m3047 -1040 l0
-855 -1480 0 -1480 0 0 855 0 855 1480 0 1480 0 0 -855z m1066 300 l83 -180
-243 -5 c-242 -5 -243 -5 -283 -32 -69 -46 -73 -63 -73 -338 0 -266 1 -273 64
-328 54 -47 100 -52 492 -52 l354 0 -2 -452 -3 -453 -118 -3 c-105 -2 -118 -1
-123 15 -32 100 -116 196 -211 241 -52 24 -69 27 -163 27 -95 0 -111 -3 -167
-29 -80 -36 -161 -120 -193 -198 l-24 -58 -123 0 -123 0 0 1015 0 1015 386 -2
386 -3 84 -180z m245 -530 c33 -71 67 -145 74 -162 l14 -33 -325 0 -324 0 0
165 0 165 250 -2 250 -3 61 -130z m-1311 -1075 l0 -240 -700 0 c-504 0 -700 3
-700 11 0 6 -12 34 -26 63 -36 72 -115 149 -188 183 -55 25 -72 28 -166 28
-94 0 -111 -3 -163 -27 -95 -44 -179 -141 -211 -240 -5 -16 -23 -18 -199 -18
-137 0 -196 3 -205 12 -9 9 -12 76 -12 240 l0 228 1285 0 1285 0 0 -240z
m-1707 -164 c84 -35 133 -141 107 -229 -45 -151 -261 -175 -338 -39 -26 47
-30 138 -8 180 43 83 154 124 239 88z m2615 -1 c76 -32 113 -88 114 -170 2
-180 -228 -257 -333 -112 -109 150 48 353 219 282z"/>
</g>
</svg>
